<?xml version="1.0" encoding="UTF-8" standalone="no"?>
<!DOCTYPE svg PUBLIC "-//W3C//DTD SVG 1.1//EN" "http://www.w3.org/Graphics/SVG/1.1/DTD/svg11.dtd">
<svg width="100%" height="100%" viewBox="0 0 1080 1920" version="1.1" xmlns="http://www.w3.org/2000/svg" xmlns:xlink="http://www.w3.org/1999/xlink" xml:space="preserve" xmlns:serif="http://www.serif.com/" style="fill-rule:evenodd;clip-rule:evenodd;stroke-linejoin:round;stroke-miterlimit:2;">
    <g id="saltandhoneycafe.jpg" transform="matrix(1.364907,0,0,1.364907,0.214403,573.732056)">
        <g id="New-York" serif:id="New York">
            <path d="M537.596,492.431C541.234,497.431 541.738,497.328 541.605,498.547C541.495,499.558 539.92,498.96 538.512,498.984C535.426,499.037 535.991,497.729 529.153,488.743C527.414,486.457 526.96,484.928 525.049,487.068C522.345,490.098 522.866,490.442 522.805,494.507C522.801,494.75 522.762,497.302 522.709,497.54C522.387,498.989 522.014,498.807 520.538,498.954C519.401,499.068 519.276,499.356 518.448,498.558C518.152,498.273 517.965,497.863 517.889,497.459C517.833,497.167 517.86,469.75 517.926,469.578C518.605,467.817 522.183,467.904 522.654,469.452C522.87,470.161 522.843,478.465 522.728,479.509C522.691,479.841 522.61,480.167 522.569,480.499C522.455,481.407 522.173,481.538 522.866,482.131C522.941,482.195 523.523,482.693 524.109,482.074C524.381,481.788 524.117,481.575 527.241,478.261C535.07,469.957 534.462,468.624 538.493,468.271C539.934,468.145 540.42,467.946 540.478,467.957C540.621,467.983 542.158,468.261 541.462,469.481C541.294,469.776 540.963,469.445 538.396,472.413C536.082,475.088 536.169,475.132 533.791,477.763C530.925,480.936 530.439,481.455 530.755,482.424C530.903,482.876 535.39,489.54 537.596,492.431Z" style="fill:rgb(231,214,193);"/>
            <path d="M477.337,493.501C477.258,469.379 477.323,469.292 477.806,468.723C478.412,468.008 478.565,468.026 489.508,468.192C498.253,468.325 500.205,474.172 499.839,478.526C499.198,486.147 492.294,484.52 494.639,488.408C498.066,494.091 498.082,494.075 498.379,494.569C500.244,497.671 500.758,497.946 499.769,498.853C499.155,499.416 496.417,499.097 495.457,498.562C494.385,497.963 489.48,488.817 488.296,487.706C487.101,486.584 483.302,486.863 482.708,487.643C482.003,488.568 482.467,495.829 482.259,497.476C481.969,499.765 478.841,499.042 478.316,498.833C477.108,498.351 477.363,495.814 477.337,493.501ZM492.492,473.514C492.096,473.372 491.755,473.1 491.359,472.958C490.693,472.72 487.809,472.714 487.5,472.713C483.906,472.705 482.327,472.154 482.328,475.501C482.329,480.045 482.129,481.668 482.708,482.315C483.073,482.721 483.464,483.158 489.521,482.778C494.29,482.478 494.818,478.403 494.486,476.503C494.161,474.648 493.896,474.747 492.492,473.514Z" style="fill:rgb(232,215,195);"/>
            <path d="M432.228,479.453C432.371,478.871 432.755,476.423 434.243,474.33C439.017,467.613 445.263,467.592 449.545,468.139C454.477,468.77 460.802,473.79 461.124,481.51C461.337,486.636 460.888,492.152 456.201,496.152C450.601,500.93 440.718,501.064 435.292,494.668C430.058,488.497 432.161,479.842 432.228,479.453ZM438.323,477.419C432.161,496.704 451.375,499.186 454.918,489.669C457.618,482.42 454.914,475.402 451.513,473.481C445.546,470.109 440.457,473.693 438.718,476.625C438.567,476.879 438.473,477.165 438.323,477.419Z" style="fill:rgb(230,214,194);"/>
            <path d="M399.393,478.561C397.731,475.642 395.655,472.149 395.326,471.594C394.099,469.528 393.063,468.311 395.449,468.184C400.269,467.927 399.749,469.532 402.265,473.638C406.231,480.111 405.752,480.594 406.399,480.69C407.673,480.878 407.57,480.444 408.251,479.354C409.567,477.246 411.683,473.332 412.281,472.368C414.248,469.196 413.952,468.238 417.515,468.197C420.947,468.157 419.046,470.352 418.818,470.681C417.985,471.883 411.855,482.728 410.18,485.306C407.982,488.689 409.814,494.898 408.984,497.648C408.346,499.76 405.073,498.888 404.653,498.378C403.913,497.482 404.496,489.139 404.156,487.557C403.985,486.761 403.799,485.897 399.393,478.561Z" style="fill:rgb(233,216,195);"/>
            <path d="M329.268,492.034C329.347,491.88 329.534,491.8 329.613,491.646C330.18,490.537 330.306,488.302 330.809,486.6C331.637,483.797 334.335,474.583 334.641,473.538C335.866,469.357 335.852,468.228 338.509,468.254C341.801,468.285 341.372,469.405 342.241,472.577C344.75,481.731 345.913,483.241 346.703,489.443C346.722,489.592 346.884,490.866 347.63,491.074C349.127,491.492 348.718,488.227 349.608,485.532C351.739,479.078 353.68,469.737 354.783,468.818C355.68,468.069 358.193,468.318 358.484,468.53C359.868,469.539 359.088,469.873 358.664,471.541C358.382,472.65 351.167,497.737 350.422,498.426C349.165,499.586 345.447,498.976 344.938,498.232C344.286,497.28 344.809,497.091 340.801,484.41C338.853,478.245 339.667,477.77 338.611,477.224C337.567,476.683 337.523,477.256 337.297,478.401C337.022,479.795 336.203,483.946 332.631,495.542C332.557,495.781 331.889,497.949 331.428,498.429C330.636,499.252 326.636,499.185 325.96,498.227C325.64,497.772 317.636,470.391 317.703,469.512C317.786,468.404 319.303,468.271 319.477,468.256C322.966,467.95 323.204,469.021 324.308,473.546C327.643,487.211 327.768,487.185 327.872,488.403C328.013,490.053 327.916,490.064 328.183,490.73C328.481,491.476 328.424,491.488 328.468,491.541C328.779,491.914 328.958,491.662 329.268,492.034Z" style="fill:rgb(232,217,196);"/>
            <path d="M282.95,476.51C283.136,469.201 282.959,468.685 284.445,468.281C285.456,468.006 301.535,468.179 301.542,468.18C303.93,468.419 303.234,471.781 302.393,472.32C301.24,473.059 289.839,472.341 288.8,472.996C287.684,473.698 288.035,479.307 288.085,479.598C288.113,479.762 288.271,480.685 289.557,481.054C289.742,481.107 299.081,481.039 299.605,481.21C300.901,481.632 301.21,484.487 299.446,485.284C299.269,485.364 295.677,485.343 292.499,485.366C289.092,485.39 287.854,485.109 287.966,488.508C288.139,493.746 288.162,493.847 288.69,494.248C289.738,495.043 299.244,494.382 301.476,494.679C304.183,495.038 303.267,498.631 302.312,499.008C301.963,499.145 299.722,499.124 299.496,499.122C297.941,499.107 286.294,499.126 285.503,499.081C285.379,499.073 283.422,499.104 282.918,497.454C282.84,497.197 282.923,478.732 282.95,476.51Z" style="fill:rgb(228,212,191);"/>
            <path d="M238.465,490.5C238.552,469.704 238.296,469.566 238.915,468.814C239.409,468.213 241.292,468.215 241.504,468.215C244.674,468.217 244.308,469.187 246.242,471.708C249.388,475.807 254.48,483.492 256.189,485.733C257.312,487.205 258.348,489.393 258.524,489.454C259.929,489.939 259.736,487.704 259.72,487.523C259.546,485.511 259.535,485.53 259.55,483.501C259.619,474.068 259.525,470.172 259.665,469.54C260.079,467.675 264.059,467.864 264.497,469.501C264.692,470.232 264.504,497.306 264.473,497.496C264.077,499.934 260.513,499.226 259.543,498.449C258.585,497.683 248.995,483.761 247.319,481.643C245.993,479.966 246.214,479.828 245.34,478.628C243.171,475.653 243.274,479.293 243.279,479.471C243.505,487.49 243.352,487.475 243.386,495.498C243.396,497.791 243.568,499.354 240.513,499.151C238.085,498.991 238.476,497.103 238.465,490.5Z" style="fill:rgb(232,217,196);"/>
        </g>
        <g id="Main-Letter" serif:id="Main Letter">
            <path d="M491.561,336.063C487.359,335.34 485.016,334.664 483.463,335.447C482.379,335.993 476.62,346.677 473.701,350.636C470.07,355.559 470.296,355.704 466.721,360.653C462.862,365.995 460.047,370.244 454.121,377.18C443.77,389.294 439.203,392.698 438.419,393.409C428.665,402.248 416.098,409.582 405.533,412.614C395.064,415.619 383.066,416.186 379.473,415.772C373.095,415.036 373.106,415.154 372.555,415.081C367.147,414.366 359.98,411.679 355.803,407.206C346.039,396.749 357.816,385.292 359.025,389.604C359.097,389.862 358.606,391.37 358.558,391.52C358.482,391.752 357.961,393.353 357.976,394.505C358.135,407.248 375.827,408.996 378.51,409.016C393.814,409.132 402.093,404.199 407.565,401.624C411.9,399.584 419.841,394.1 421.632,392.681C428.321,387.379 428.362,387.442 434.305,381.307C443.542,371.771 460.725,347.605 464.892,340.736C466.04,338.844 468.554,335.619 467.323,334.803C466.497,334.255 446.04,335.498 432.776,344.879C431.321,345.908 426.928,349.798 425.519,352.512C424.683,354.122 423.986,354.488 423,352.963C422.929,352.853 421.162,350.45 421.409,347.493C422.346,336.306 441.341,329.811 451.529,328.759C470.655,326.783 471.572,329.374 473.472,327.475C474.218,326.729 481.272,313.927 481.928,312.736C502.813,274.833 504.225,270.801 505.69,266.567C508.118,259.553 506.255,256.003 493.545,257.875C484.302,259.236 464.686,266.855 450.559,278.572C449.732,279.258 444.118,283.913 440.69,287.677C428.587,300.961 434.905,307.644 438.456,309.572C440.911,310.904 439.712,312.756 436.504,312.461C431.822,312.031 428.52,309.56 428.477,309.535C420.68,304.835 417.751,293.128 429.772,281.797C432.124,279.58 439.176,274.379 439.809,273.967C443.895,271.303 443.933,271.392 444.287,271.161C449.908,267.481 453.297,266.002 464.599,260.708C474.883,255.891 488.679,252.296 496.525,251.795C505.378,251.231 509.545,252.82 510.602,253.224C511.619,253.612 518.956,256.41 518.263,264.471C518.134,265.975 517.73,270.674 512.095,282.312C511.534,283.472 506.925,292.992 504.725,296.629C503.765,298.217 500.507,304.448 499.803,305.665C498.699,307.575 497.181,310.346 496.956,310.755C496.407,311.757 491.338,321.009 490.129,323.302C487.496,328.295 486.79,328.414 487.6,329.394C487.875,329.726 489.409,330.005 489.572,330.035C503.868,332.637 507.643,334.524 509.439,334.258C510.783,334.059 511.165,331.803 516.921,321.748C521.862,313.117 521.99,313.2 522.401,312.44C525.181,307.304 525.654,307.61 528.579,302.55C529.677,300.65 535.912,292.165 537.6,289.565C543.17,280.989 554.661,267.237 557.407,264.411C565.964,255.608 569.02,254.269 571.31,253.1C575.742,250.835 581.163,251.523 583.411,254.567C583.539,254.74 584.801,256.449 583.366,257.25C583.156,257.367 583.149,257.331 581.526,257.639C580.942,257.75 578.661,258.183 574.891,261C570.748,264.094 561.065,276.48 557.111,282.212C553.917,286.842 553.449,286.489 542.273,303.367C539.052,308.231 539.32,308.373 536.159,313.277C533.573,317.29 533.751,317.389 533.197,318.33C524.612,332.927 524.985,333.131 524.181,334.363C524.086,334.508 522.946,336.252 524.496,336.513C525.333,336.654 533.142,334.857 536.499,333.497C539.207,332.399 541.45,327.541 545.417,326.252C547.638,325.53 548.059,326.435 550.374,324.367C557.751,317.779 568.453,319.329 570.234,328.561C571.399,334.605 569.518,337.349 570.758,338.046C571.507,338.467 573.063,337.443 573.374,337.276C582.999,332.095 583.285,328.347 585.439,325.45C586.728,323.716 591.076,322.784 593.278,324.769C595.119,326.43 595.276,327.545 593.095,332.316C588.667,342.006 588.096,341.71 587.758,342.571C587.372,343.554 587.829,343.93 587.918,344.004C588.868,344.787 590.663,341.822 590.724,341.732C591.59,340.474 595.237,335.173 603.676,327.701C611.946,320.378 618.196,321.44 619.509,326.497C621.492,334.132 601.994,361.584 605.746,365.27C607.17,366.67 610.428,363.941 612.325,362.292C615.032,359.94 619.319,354.947 619.552,354.535C620.759,352.395 621.615,344.416 629.205,335.242C638.509,323.996 646.632,321.871 648.468,321.39C654.384,319.843 662.348,322.502 660.65,330.536C659.497,335.996 654.63,339.582 654.596,339.611C644.454,348.4 635.059,348.12 633.894,348.982C632.307,350.155 626.801,365.832 635.513,366.22C642.037,366.512 650.015,358.787 650.434,358.42C652.109,356.952 657.643,351.597 661.969,345.851C665.05,341.759 664.751,337.021 670.548,327.532C674.255,321.464 679.781,325.248 680.302,325.713C683.152,328.257 678.412,333.018 672.652,348.56C668.07,360.924 667.709,363.868 669.528,364.058C670.774,364.188 674.575,360.307 674.958,359.917C686.274,348.362 690.311,339.029 692.772,334.654C695.671,329.498 697.579,322.536 700.581,320.625C703.17,318.976 710.219,320.734 708.292,326.433C708.073,327.08 706.245,332.488 705.474,334.49C692.736,367.589 689.467,374.301 687.834,377.655C681.786,390.073 680.936,390.241 681.816,391.134C682.413,391.74 689.305,392.591 690.45,392.793C691.086,392.905 694.281,393.467 698.497,393.362C707.376,393.142 719.796,391.933 730.587,382.597C742.339,372.429 737.514,366.806 736.849,364.408C736.553,363.342 737.891,361.199 740.668,363.259C744.85,366.361 745.569,369.93 746.05,372.576C746.95,377.522 743.918,385.153 735.596,390.647C732.645,392.596 723.452,398.826 706.499,398.998C688.322,399.183 687.092,397.259 679.513,396.4C679.279,396.373 677.77,396.202 676.88,397.713C675.8,399.547 669.633,410.022 661.128,419.149C649.914,431.184 637.053,440.343 634.216,442.05C622.129,449.325 617.736,450.989 617.349,451.167C596.644,460.713 575.639,461.13 575.458,461.149C565.803,462.154 552.95,460.196 552.586,460.121C534.668,456.448 528.514,450.092 526.271,447.71C519.904,440.947 520.046,435.525 519.945,434.471C518.323,417.636 536.137,407.196 539.708,404.824C551.095,397.26 565.074,392.903 567.399,392.179C583.583,387.135 598.673,385.481 599.47,385.346C602.79,384.784 619.272,383.367 626.475,383.922C627.999,384.039 627.981,383.867 629.499,383.927C640.213,384.349 655.324,386.773 657.554,387.131C666.679,388.595 666.646,388.764 667.443,388.865C670.466,389.246 670.267,388.27 671.763,385.634C672.698,383.986 676.624,377.07 682.218,364.384C688.319,350.549 689.799,350.768 689.1,349.673C688.693,349.034 687.702,349.585 687.597,349.643C687.253,349.834 684.378,355.02 680.553,359.548C671.139,370.691 667.077,370.748 666.593,370.858C662.729,371.739 660.053,368.477 659.571,367.462C657.896,363.931 658.84,360.397 659.001,359.437C659.381,357.169 660.023,355.745 659.623,355.388C658.622,354.495 657.548,356.282 657.449,356.448C657.295,356.703 657.408,356.791 654.18,360.193C638.1,377.136 624.177,373.375 621.326,366.572C619.917,363.211 620.417,361.824 619.932,361.151C618.995,359.847 618.341,360.935 618.213,361.088C617.704,361.695 617.716,361.683 617.227,362.288C613.5,366.9 605.861,373.368 600.547,372.237C595.228,371.104 595.02,366.084 594.914,365.446C593.652,357.867 604.55,339.357 605.095,338.29C608.778,331.086 608.872,331.076 608.779,330.384C608.65,329.43 607.662,329.728 607.557,329.76C605.648,330.336 600.687,335.578 600.149,336.146C585.261,351.874 577.629,369.997 576.564,371.549C574.976,373.864 569.069,371.896 567.169,369.778C565.764,368.212 566.836,367.856 576.629,345.553C579.511,338.99 579.82,339.089 579.817,338.468C579.817,338.345 579.812,337.01 578.533,337.621C577.868,337.939 577.336,338.483 576.741,338.918C574.528,340.536 570.514,341.793 569.577,342.587C568.241,343.72 567.257,351.415 560.257,360.315C559.099,361.787 559.051,361.739 558.952,361.868C545.669,379.069 532.4,375.808 528.422,370.563C527.958,369.953 522.764,364.614 527.627,350.54C530.311,342.774 531.58,342.035 532.555,340.529C533.246,339.463 533.635,339.093 532.494,338.519C532.164,338.353 532.159,338.491 530.403,339.077C525.544,340.696 521.757,340.594 520.751,341.712C519.978,342.571 513.931,356.066 512.98,358.654C507.207,374.362 507.454,376.036 507.172,377.447C503.222,397.241 508.015,403.336 512.503,402.869C513.18,402.799 513.825,402.5 514.505,402.469C514.711,402.46 517.209,403.148 513.921,404.981C507.872,408.355 502.082,406.08 501.378,405.84C490.807,402.234 491.6,389.592 491.617,387.503C491.756,370.317 506.806,341.986 507.172,340.432C507.334,339.747 506.502,338.954 506.321,338.886C505.019,338.393 494.361,336.447 491.561,336.063ZM557.268,327.299C556.972,327.728 554.991,330.598 555.326,333.521C555.916,338.666 562.594,341.114 563.699,338.602C564.735,336.247 566.085,323.914 559.549,325.653C558.236,326.003 558.403,326.273 557.268,327.299ZM532.525,424.511C530.404,430.118 529.577,435.479 534.356,442.599C537.162,446.778 545.736,453.694 560.519,455.29C560.969,455.339 566.548,456.366 577.501,455.512C588.349,454.666 604.882,448.855 613.644,443.775C622.065,438.894 624.36,438.657 639.44,425.431C641.742,423.412 652.399,414.066 664.571,396.55C665.243,395.583 665.623,395.69 665.484,394.503C665.392,393.728 665.206,393.799 664.472,393.575C664.129,393.471 652.831,391.418 652.512,391.381C645.922,390.606 633.94,388.234 613.508,388.825C611.486,388.883 611.531,389.152 609.493,389.22C604.985,389.371 594.739,390.98 593.463,391.18C565.356,395.592 551.772,404.815 546.459,408.441C541.393,411.898 536.459,417.431 534.979,419.815C533.581,422.068 533.681,422.109 532.525,424.511ZM552.7,360.635C552.94,360.27 554.133,358.532 554.258,358.35C558.299,352.463 561.622,345.486 561.498,344.5C561.293,342.861 557.448,344.191 552.574,341.37C548.868,339.226 548.805,337.712 548.496,337.505C547.287,336.693 547.098,337.141 546.271,338.332C545.315,339.709 538.507,349.555 536.907,359.555C535.317,369.485 539.807,372.092 546.754,366.851C550.039,364.372 550.489,363.577 552.7,360.635ZM651.472,334.479C651.804,333.987 654.392,330.163 653.778,327.43C653.619,326.723 652.309,322.952 645.138,330.159C639.968,335.354 636.886,341.373 636.74,341.619C636.636,341.792 635.515,343.673 636.638,344.148C637.623,344.563 637.594,344.089 639.433,343.341C645.447,340.894 648.16,338.6 651.472,334.479Z" style="fill:rgb(227,213,193);"/>
            <path d="M134.671,318.402C126.685,305.426 120.169,290.373 129.15,274.307C132.933,267.539 137.791,260.325 150.601,252.666C157.168,248.741 165.496,246.225 167.561,245.76C174.475,244.205 174.459,244.16 181.505,243.561C190.253,242.817 203.154,244.878 210.436,250.579C210.459,250.597 212.942,252.275 216.234,256.706C221.303,263.529 219.775,273.163 219.225,275.445C218.135,279.963 216.199,286.059 209.295,292.276C194.426,305.665 177.956,298.602 179.679,295.606C180.726,293.785 181.882,297.448 189.547,295.702C198.636,293.631 210.516,277.329 208.762,264.459C207.738,256.952 204.353,254.641 203.809,254.15C197.863,248.772 190.604,248.552 188.505,248.407C185.866,248.225 172.133,247.279 156.866,257.998C154.393,259.735 148.638,265.443 146.979,267.857C136.882,282.553 140.529,293.338 142.3,298.571C143.837,303.113 149.467,312.333 150.311,313.619C155.505,321.527 155.388,321.588 155.84,322.274C161.346,330.625 160.867,330.884 163.779,336.363C168.718,345.659 169.41,359.852 169.095,363.457C167.808,378.194 164.916,388.268 152.68,401.658C147.45,407.382 140.158,411.841 138.724,412.83C131.429,417.86 118.152,422.417 110.503,423.523C81.382,427.736 64.493,417.291 62.244,415.894C51.078,408.957 43.539,399.991 42.45,384.503C42.33,382.8 42.716,378.277 42.854,377.559C45.095,365.831 50.332,360.167 51.061,359.177C63.577,342.187 84.269,337.523 85.411,337.194C89.622,335.983 102.032,334.336 111.452,336.693C112.564,336.971 119.778,338.775 124.623,342.333C131.96,347.72 134.075,353.319 135.146,359.561C135.636,362.409 134.612,368.2 133.136,371.326C127.663,382.921 112.99,391.642 100.469,385.554C100.239,385.443 97.656,384.187 98.855,382.795C99.608,381.92 101.732,383.03 103.506,383.088C117.121,383.533 125.748,366.014 123.25,356.555C119.037,340.604 101.606,340.595 97.445,341.134C97.053,341.185 92.559,341.766 92.538,341.77C79.614,344.254 70.322,352.583 67.447,356.454C67.048,356.991 64.156,360.52 63.963,360.812C57.566,370.517 57.288,376.699 57.169,377.455C52.69,405.856 82.296,424.503 114.393,416.133C121.653,414.24 133.218,408.205 141.103,399.153C144.201,395.597 147.95,389.697 149.043,387.289C153.15,378.235 153.653,370.06 153.748,368.514C155.074,346.978 143.224,332.852 134.671,318.402Z" style="fill:rgb(227,213,193);"/>
            <path d="M360.864,311.503C361.03,309.354 361.012,309.371 361.123,308.446C361.257,307.327 362.061,300.623 366.285,295.334C373.073,286.833 379.669,286.863 382.503,286.817C394.143,286.628 397.157,298.883 388.723,308.695C382.613,315.804 378.279,317.972 375.716,319.827C373.338,321.548 373.974,322.136 375.096,326.598C377.1,334.573 382.876,346.111 387.829,353.269C387.97,353.473 389.422,355.571 390.311,355.111C391.254,354.623 395.226,349.508 396.581,347.558C400.34,342.149 400.966,341.17 397.806,337.273C394.139,332.749 390.752,331.281 390.66,331.225C388.048,329.67 390.331,328.634 390.527,328.546C390.947,328.355 393.828,326.678 398.673,331.321C401.993,334.501 402.691,338.731 404.633,334.575C405.451,332.824 408.887,326.453 407.469,320.507C406.017,314.42 402.82,314.836 402.54,313.487C402.311,312.383 403.565,310.31 407.386,312.692C408.606,313.452 413.786,316.261 412.496,324.499C411.4,331.494 408.294,336.39 406.887,338.706C405.271,341.366 404.984,341.431 405.499,344.5C406.17,348.491 405.403,352.054 405.205,352.254C405.031,352.429 403.989,352.413 403.853,352.253C403.666,352.032 403.399,348.11 403.157,347.792C402.983,347.563 401.962,347.421 401.651,347.652C401.415,347.828 401.64,348.071 400.692,349.618C395.255,358.486 391.795,358.719 394.385,361.604C398.711,366.421 402.207,369.866 409.624,372.063C414.192,373.415 420.431,369.863 422.807,367.901C426.601,364.768 426.244,363.601 427.5,363.576C430.804,363.509 426.793,370.99 419.411,375.341C417.641,376.384 406.416,383 393.735,375.104C385.928,370.243 386.227,366.852 383.164,369.033C382.585,369.445 378.866,372.094 375.54,373.589C367.621,377.148 362.677,377.111 361.521,377.103C352.395,377.034 349.516,375.502 347.441,374.629C334.355,369.12 330.879,353.448 341.303,339.361C345.308,333.949 345.604,334.212 348.061,332.012C354.496,326.249 358.24,325.263 360.224,324.001C363.092,322.176 361.023,321.263 360.864,311.503ZM372.233,308.511C372.242,309.066 372.339,314.864 372.66,315.43C373.146,316.285 374.103,316.075 374.235,316.046C374.304,316.031 376.585,314.03 376.787,313.852C388.227,303.813 387.955,294.972 386.638,292.423C384.785,288.838 377.717,290.18 374.472,297.485C371.839,303.415 372.237,307.021 372.233,308.511ZM379.477,361.516C367.037,344.105 364.921,332.668 364.188,330.599C363.442,328.493 362.632,328.517 360.965,329.991C358.043,332.572 358.199,332.704 355.642,335.63C350.277,341.768 348.905,349.718 348.823,350.536C347.248,366.341 363.44,377.341 378.763,365.855C380.902,364.252 381.052,363.691 379.477,361.516Z" style="fill:rgb(228,213,193);"/>
            <path d="M162.365,418.282C157.299,421.524 157.708,417.97 157.86,417.639C158.582,416.056 164.823,411.246 170.459,408.427C197.639,394.832 221.291,391.456 238.456,388.295C241.108,387.807 244.909,387.346 245.472,387.277C251.441,386.552 251.447,386.841 257.438,386.136C258.001,386.069 258.008,386.241 264.521,385.763C268.575,385.466 294.054,385.14 311.557,392.356C315.141,393.834 330.286,399.743 331.743,412.468C332.543,419.458 328.649,426.346 319.528,428.602C316.726,429.295 314.525,429.982 313.999,429.191C313.117,427.866 316.409,426.9 318.175,425.153C321.936,421.431 325.464,413.198 319.276,405.679C317.945,404.061 312.386,395.931 286.45,391.876C285.901,391.79 285.902,391.851 279.553,391.08C277.53,390.834 277.539,390.961 275.504,391.038C274.866,391.062 274.872,390.85 267.515,390.964C265.296,390.998 234.809,391.369 207.448,400.345C199.683,402.892 179.758,408.137 162.365,418.282Z" style="fill:rgb(229,214,194);"/>
            <path d="M277.639,284.621C285.162,276.195 295.851,267.281 303.462,268.752C315.571,271.092 308.035,284.879 307.278,286.391C304.153,292.635 295.48,304.823 294.315,306.359C291.241,310.411 280.558,323.249 272.875,330.878C269.173,334.553 268.006,336.387 262.324,341.286C256.828,346.025 256.666,345.822 256.243,346.289C254.452,348.263 252.804,359.962 252.741,361.515C252.044,378.835 271.779,363.121 277.084,357.085C284.179,349.011 285.52,348.185 288.298,343.391C288.306,343.376 296.541,327.887 296.69,327.59C299.835,321.317 300.599,321.154 299.739,320.287C298.838,319.379 298.67,319.902 297.442,320.218C291.969,321.629 291.328,322.279 287.578,323.675C284.536,324.807 283.518,322.588 285.658,320.71C291.066,315.965 299.268,315.085 300.538,314.949C303.118,314.672 303.758,315.103 305.468,311.484C306.079,310.192 311.557,300.794 313.277,298.355C315.593,295.071 315.602,295.096 317.952,291.825C321.581,286.771 330.699,290.266 328.536,295.517C328.205,296.321 324.376,302.713 323.746,303.645C322.189,305.949 319.812,310.327 318.877,311.728C318.764,311.897 317.641,313.579 318.626,314.259C318.845,314.411 321.271,314.431 321.501,314.433C321.866,314.436 328.985,314.665 331.453,314.196C340.302,312.515 340.212,312.061 340.654,311.848C340.902,311.728 343.583,310.436 344.094,311.689C345.321,314.695 334.42,318.799 327.484,319.097C316.161,319.584 315.388,318.33 313.885,320.726C313.648,321.103 308.875,330.241 308.35,331.424C306.171,336.327 300.21,346.907 297.479,357.494C297.258,358.35 295.335,365.807 298.506,368.494C301.073,370.669 308.657,367.922 314.646,362.684C321.418,356.762 322.318,353.684 323.564,352.56C325.748,350.588 326.402,353.499 326.404,353.514C326.665,356.369 315.737,367.65 312.177,370.032C304.961,374.86 300.57,375.169 299.474,375.246C289.139,375.974 286.378,370.181 286.094,369.755C285.63,369.058 283.646,366.078 284.16,359.473C284.399,356.407 285.57,354.942 283.459,355.4C282.86,355.529 283.27,356.108 279.381,360.396C261.42,380.196 249.757,374.921 249.392,374.79C238.621,370.908 242.014,360.536 240.37,359.795C239.134,359.239 239.424,360.572 230.563,368.572C218.086,379.836 210.871,373.943 209.466,371.522C206.224,365.94 208.377,361.89 208.419,360.506C208.47,358.829 207.381,358.996 206.373,360.34C205.66,361.29 201.322,367.075 196.277,371.232C190.666,375.857 184.966,375.317 184.533,375.243C170.793,372.905 174.635,348.572 191.767,331.761C200.552,323.141 211.921,318.31 219.397,321.735C223.938,323.815 223.547,326.368 225.71,324.898C230.421,321.694 235.155,324.912 234.823,327.564C234.564,329.64 222.605,349.156 219.29,362.447C219.194,362.834 218.455,365.795 219.612,367.42C222.355,371.272 230.355,363.78 233.164,361.139C233.442,360.878 240.956,352.804 241.237,352.352C242.781,349.866 241.181,347.297 249.799,328.632C256.067,315.054 258.442,312.818 262.443,305.466C264.674,301.369 272.194,290.828 277.639,284.621ZM188.58,364.485C188.868,365.071 189.428,368.871 194.494,366.488C202.395,362.771 213.912,343.275 216.594,337.549C217.78,335.018 220.912,330.202 217.89,327.119C215.196,324.371 209.993,326.412 204.795,331.771C199.446,337.285 195.303,344.381 194.611,345.565C189.573,354.194 188.326,361.159 188.458,363.502C188.476,363.832 188.561,364.155 188.58,364.485ZM266.43,331.435C274.665,322.731 283.603,312.308 285.085,310.21C291.227,301.516 301.149,289.519 304.135,277.418C304.209,277.119 304.938,274.163 302.475,273.936C294.852,273.234 269.326,315.272 261.882,330.697C258.838,337.004 258.709,336.934 258.448,337.484C258.386,337.616 257.659,339.147 258.563,339.313C259.677,339.518 259.475,338.902 266.43,331.435Z" style="fill:rgb(228,214,194);"/>
        </g>
    </g>
</svg>
