<svg
  viewBox="0 0 862 1493"
  xmlns="http://www.w3.org/2000/svg"
  fill="currentColor"
  aria-hidden="true"
>
  <g transform="matrix(1,0,0,1,-1291.569946,-253.338401)">
    <path
      fill="currentColor"
      fill-rule="evenodd"
      clip-rule="evenodd"
      d="M1291.57,334.55C1343.29,347.451 1393.31,365.511 1441.14,388.492C1444.19,391.536 1452.49,400.758 1459.19,416.941C1462.37,424.63 1464.78,432.901 1466.42,441.666C1464.44,441.903 1462.46,442.252 1460.5,442.718C1418.15,452.772 1394.89,501.438 1405.45,552.09C1425.23,646.954 1490.57,682.799 1490.57,682.799C1490.57,682.799 1557.1,597.785 1552.87,528.086C1550.74,493.105 1528.29,461.504 1500.8,448.091C1499.43,436.256 1497.05,425.738 1494.11,416.477C1506.12,423.417 1517.96,430.681 1529.63,438.274C1578.55,470.1 1623.57,507.048 1664.17,548.6C1666,552.634 1670.06,563.142 1671.04,578.909C1671.51,586.509 1671.26,595.841 1669.47,606.687C1667.53,606.235 1665.56,605.888 1663.56,605.654C1620.33,600.619 1581.83,638.394 1574.42,689.602C1560.56,785.51 1609.71,841.542 1609.71,841.542C1609.71,841.542 1701.3,784.41 1721.16,717.465C1731.13,683.867 1720.84,646.493 1699.6,624.487C1702.34,612.966 1703.7,602.329 1704.11,592.668C1709.12,598.625 1714.05,604.659 1718.89,610.774C1758.87,661.277 1792.28,716.043 1818.67,774.207C1819.06,778.483 1819.5,790.896 1814.21,807.627C1811.71,815.562 1808.24,823.447 1803.86,831.214C1802.19,830.124 1800.45,829.121 1798.65,828.215C1759.75,808.7 1710.65,831.027 1686.17,876.614C1640.35,961.997 1667.36,1031.46 1667.36,1031.46C1667.36,1031.46 1772.98,1009.1 1814.53,952.984C1835.39,924.821 1838.5,886.182 1826.07,858.239C1832.65,848.251 1837.61,838.628 1841.31,829.615C1842.15,831.906 1842.98,834.201 1843.79,836.502C1867.07,902.203 1881.41,970.466 1886.63,1040.13C1885.38,1044.65 1881.44,1056.12 1871.14,1069.53C1866.07,1076.13 1860.11,1082.36 1853.34,1088.16C1852.15,1086.56 1850.86,1085.03 1849.47,1083.56C1819.59,1051.92 1765.82,1056.1 1727.23,1090.57C1654.96,1155.13 1656.59,1229.64 1656.59,1229.64C1656.59,1229.64 1763.48,1244.75 1821.72,1206.24C1850.96,1186.9 1867.1,1151.66 1864.97,1121.15C1874.47,1114.09 1882.34,1106.83 1888.87,1099.7L1888.87,1100C1888.87,1172.29 1879.15,1243.55 1859.95,1312.39C1857.49,1315.91 1849.85,1325.7 1835.05,1335.12C1828.03,1339.59 1820.31,1343.39 1811.96,1346.53C1811.38,1344.62 1810.7,1342.74 1809.9,1340.88C1792.64,1300.93 1740.68,1286.47 1692.63,1305.66C1602.64,1341.61 1578.68,1412.19 1578.68,1412.19C1578.68,1412.19 1673.96,1462.95 1741.86,1446.67C1775.95,1438.51 1803.17,1410.91 1811.6,1381.51C1823.06,1378.09 1833.04,1373.9 1841.67,1369.38C1822.38,1422.51 1797.44,1473.3 1767.21,1521.08C1726.25,1504.06 1674.22,1523.41 1642.23,1567.56C1575.18,1660.14 1595.79,1745.6 1595.79,1745.6C1595.79,1745.6 1722.78,1736.15 1780.22,1677.11C1817.73,1638.56 1822.93,1574.53 1794.09,1540.31C1820.25,1499.19 1842.63,1455.92 1861.03,1410.89C1864.41,1421.88 1868.65,1431.06 1872.89,1438.49C1873.91,1440.27 1874.94,1441.97 1875.98,1443.61C1861.18,1471.53 1863.01,1512.36 1884.33,1542.07C1925.04,1598.8 2030.3,1622.74 2030.3,1622.74C2030.3,1622.74 2058.36,1553.69 2013.82,1467.63C1990.03,1421.68 1941.27,1398.62 1902.08,1417.55C1901.26,1417.95 1900.45,1418.37 1899.66,1418.81C1889.37,1398.99 1881.83,1368.16 1891.22,1323.13C1900.91,1288.73 1908.31,1253.74 1913.42,1218.33L1915.73,1207.41L1914.65,1209.45C1918.08,1183.69 1920.28,1157.72 1921.27,1131.6C1928.27,1140.89 1935.46,1148.15 1942.05,1153.73C1943.61,1155.05 1945.16,1156.3 1946.7,1157.49C1942.34,1188.79 1958.03,1226.52 1988.22,1247.15C2045.88,1286.54 2152.99,1273.03 2152.99,1273.03C2152.99,1273.03 2155.73,1198.55 2084.45,1132.92C2046.38,1097.87 1992.67,1092.88 1962.32,1124.07C1961.68,1124.73 1961.07,1125.4 1960.47,1126.08C1943.97,1110.92 1926.26,1084.4 1919.74,1038.55L1919.46,1036.54C1916.77,1001.32 1911.84,966.454 1904.7,932.064L1903.27,921.94L1902.98,924C1897.46,898.707 1890.74,873.681 1882.82,848.978C1892.48,855.22 1901.62,859.528 1909.65,862.494C1911.57,863.202 1913.45,863.842 1915.3,864.431C1921.91,895.337 1949.56,925.431 1984.98,934.486C2052.639,951.779 2148.66,902.455 2148.66,902.455C2148.66,902.455 2125.77,831.528 2036.33,794.23C1988.58,774.319 1936.4,787.997 1918.55,827.687C1918.17,828.522 1917.83,829.365 1917.5,830.213C1896.89,821.643 1871.3,802.887 1849.56,762.381C1834.81,729.671 1817.93,697.991 1799.01,667.479L1793.93,657.942L1794.4,660.132C1780.48,638.225 1765.5,616.934 1749.49,596.312C1760.8,598.923 1770.96,599.861 1779.59,599.902C1781.63,599.91 1783.62,599.867 1785.56,599.787C1802.34,626.568 1838.61,645.394 1875,641.785C1944.49,634.897 2017.86,555.704 2017.86,555.704C2017.86,555.704 1972.09,496.884 1875.29,492.425C1823.6,490.049 1779.25,520.747 1776.05,564.149C1775.98,565.062 1775.95,565.973 1775.93,566.882C1753.53,565.875 1722.92,556.939 1688.46,526.005L1686.67,524.405C1662.17,499.423 1636.13,476.042 1608.65,454.376L1607.49,453.333L1607.64,453.588C1588.33,438.408 1568.31,424.066 1547.63,410.607C1544.48,408.558 1541.31,406.541 1538.14,404.538C1549.63,403.119 1559.46,400.532 1567.56,397.628C1569.49,396.938 1571.34,396.218 1573.13,395.48C1598.07,414.904 1638.59,420.188 1671.55,404.352C1734.49,374.114 1776.34,274.604 1776.34,274.604C1776.34,274.604 1713.22,234.985 1620.73,263.902C1571.35,279.347 1540.17,323.364 1552.01,365.243C1552.25,366.124 1552.53,366.992 1552.83,367.853C1531.5,374.546 1499.79,376.622 1457.01,359.499C1424.3,343.695 1390.6,330.103 1356.06,318.795L1347.43,315.315L1348.95,316.504C1332.67,311.338 1316.2,306.675 1299.56,302.525L1291.57,334.55Z"
    />
  </g>
</svg>
