<?xml version="1.0" encoding="UTF-8" standalone="no"?>
<!DOCTYPE svg PUBLIC "-//W3C//DTD SVG 1.1//EN" "http://www.w3.org/Graphics/SVG/1.1/DTD/svg11.dtd">
<svg width="100%" height="100%" viewBox="0 0 469 52" version="1.1" xmlns="http://www.w3.org/2000/svg" xmlns:xlink="http://www.w3.org/1999/xlink" xml:space="preserve" xmlns:serif="http://www.serif.com/" style="fill-rule:evenodd;clip-rule:evenodd;stroke-linejoin:round;stroke-miterlimit:2;">
    <g transform="matrix(1,0,0,1,-299.309665,-396.949632)">
        <g transform="matrix(1.534581,0,0,1.534581,-65.107953,-319.620098)">
            <g id="New-York" serif:id="New York">
                <path d="M537.596,492.431C541.234,497.431 541.738,497.328 541.605,498.547C541.495,499.558 539.92,498.96 538.512,498.984C535.426,499.037 535.991,497.729 529.153,488.743C527.414,486.457 526.96,484.928 525.049,487.068C522.345,490.098 522.866,490.442 522.805,494.507C522.801,494.75 522.762,497.302 522.709,497.54C522.387,498.989 522.014,498.807 520.538,498.954C519.401,499.068 519.276,499.356 518.448,498.558C518.152,498.273 517.965,497.863 517.889,497.459C517.833,497.167 517.86,469.75 517.926,469.578C518.605,467.817 522.183,467.904 522.654,469.452C522.87,470.161 522.843,478.465 522.728,479.509C522.691,479.841 522.61,480.167 522.569,480.499C522.455,481.407 522.173,481.538 522.866,482.131C522.941,482.195 523.523,482.693 524.109,482.074C524.381,481.788 524.117,481.575 527.241,478.261C535.07,469.957 534.462,468.624 538.493,468.271C539.934,468.145 540.42,467.946 540.478,467.957C540.621,467.983 542.158,468.261 541.462,469.481C541.294,469.776 540.963,469.445 538.396,472.413C536.082,475.088 536.169,475.132 533.791,477.763C530.925,480.936 530.439,481.455 530.755,482.424C530.903,482.876 535.39,489.54 537.596,492.431Z" style="fill:rgb(227,213,193);stroke:rgb(227,213,193);stroke-width:1.95px;"/>
                <path d="M477.337,493.501C477.258,469.379 477.323,469.292 477.806,468.723C478.412,468.008 478.565,468.026 489.508,468.192C498.253,468.325 500.205,474.172 499.839,478.526C499.198,486.147 492.294,484.52 494.639,488.408C498.066,494.091 498.082,494.075 498.379,494.569C500.244,497.671 500.758,497.946 499.769,498.853C499.155,499.416 496.417,499.097 495.457,498.562C494.385,497.963 489.48,488.817 488.296,487.706C487.101,486.584 483.302,486.863 482.708,487.643C482.003,488.568 482.467,495.829 482.259,497.476C481.969,499.765 478.841,499.042 478.316,498.833C477.108,498.351 477.363,495.814 477.337,493.501ZM492.492,473.514C492.096,473.372 491.755,473.1 491.359,472.958C490.693,472.72 487.809,472.714 487.5,472.713C483.906,472.705 482.327,472.154 482.328,475.501C482.329,480.045 482.129,481.668 482.708,482.315C483.073,482.721 483.464,483.158 489.521,482.778C494.29,482.478 494.818,478.403 494.486,476.503C494.161,474.648 493.896,474.747 492.492,473.514Z" style="fill:rgb(227,213,193);stroke:rgb(227,213,193);stroke-width:1.95px;"/>
                <path d="M432.228,479.453C432.371,478.871 432.755,476.423 434.243,474.33C439.017,467.613 445.263,467.592 449.545,468.139C454.477,468.77 460.802,473.79 461.124,481.51C461.337,486.636 460.888,492.152 456.201,496.152C450.601,500.93 440.718,501.064 435.292,494.668C430.058,488.497 432.161,479.842 432.228,479.453ZM438.323,477.419C432.161,496.704 451.375,499.186 454.918,489.669C457.618,482.42 454.914,475.402 451.513,473.481C445.546,470.109 440.457,473.693 438.718,476.625C438.567,476.879 438.473,477.165 438.323,477.419Z" style="fill:rgb(227,213,193);stroke:rgb(227,213,193);stroke-width:1.95px;"/>
                <path d="M399.393,478.561C397.731,475.642 395.655,472.149 395.326,471.594C394.099,469.528 393.063,468.311 395.449,468.184C400.269,467.927 399.749,469.532 402.265,473.638C406.231,480.111 405.752,480.594 406.399,480.69C407.673,480.878 407.57,480.444 408.251,479.354C409.567,477.246 411.683,473.332 412.281,472.368C414.248,469.196 413.952,468.238 417.515,468.197C420.947,468.157 419.046,470.352 418.818,470.681C417.985,471.883 411.855,482.728 410.18,485.306C407.982,488.689 409.814,494.898 408.984,497.648C408.346,499.76 405.073,498.888 404.653,498.378C403.913,497.482 404.496,489.139 404.156,487.557C403.985,486.761 403.799,485.897 399.393,478.561Z" style="fill:rgb(227,213,193);stroke:rgb(227,213,193);stroke-width:1.95px;"/>
                <path d="M329.268,492.034C329.347,491.88 329.534,491.8 329.613,491.646C330.18,490.537 330.306,488.302 330.809,486.6C331.637,483.797 334.335,474.583 334.641,473.538C335.866,469.357 335.852,468.228 338.509,468.254C341.801,468.285 341.372,469.405 342.241,472.577C344.75,481.731 345.913,483.241 346.703,489.443C346.722,489.592 346.884,490.866 347.63,491.074C349.127,491.492 348.718,488.227 349.608,485.532C351.739,479.078 353.68,469.737 354.783,468.818C355.68,468.069 358.193,468.318 358.484,468.53C359.868,469.539 359.088,469.873 358.664,471.541C358.382,472.65 351.167,497.737 350.422,498.426C349.165,499.586 345.447,498.976 344.938,498.232C344.286,497.28 344.809,497.091 340.801,484.41C338.853,478.245 339.667,477.77 338.611,477.224C337.567,476.683 337.523,477.256 337.297,478.401C337.022,479.795 336.203,483.946 332.631,495.542C332.557,495.781 331.889,497.949 331.428,498.429C330.636,499.252 326.636,499.185 325.96,498.227C325.64,497.772 317.636,470.391 317.703,469.512C317.786,468.404 319.303,468.271 319.477,468.256C322.966,467.95 323.204,469.021 324.308,473.546C327.643,487.211 327.768,487.185 327.872,488.403C328.013,490.053 327.916,490.064 328.183,490.73C328.481,491.476 328.424,491.488 328.468,491.541C328.779,491.914 328.958,491.662 329.268,492.034Z" style="fill:rgb(227,213,193);stroke:rgb(227,213,193);stroke-width:1.95px;"/>
                <path d="M282.95,476.51C283.136,469.201 282.959,468.685 284.445,468.281C285.456,468.006 301.535,468.179 301.542,468.18C303.93,468.419 303.234,471.781 302.393,472.32C301.24,473.059 289.839,472.341 288.8,472.996C287.684,473.698 288.035,479.307 288.085,479.598C288.113,479.762 288.271,480.685 289.557,481.054C289.742,481.107 299.081,481.039 299.605,481.21C300.901,481.632 301.21,484.487 299.446,485.284C299.269,485.364 295.677,485.343 292.499,485.366C289.092,485.39 287.854,485.109 287.966,488.508C288.139,493.746 288.162,493.847 288.69,494.248C289.738,495.043 299.244,494.382 301.476,494.679C304.183,495.038 303.267,498.631 302.312,499.008C301.963,499.145 299.722,499.124 299.496,499.122C297.941,499.107 286.294,499.126 285.503,499.081C285.379,499.073 283.422,499.104 282.918,497.454C282.84,497.197 282.923,478.732 282.95,476.51Z" style="fill:rgb(227,213,193);stroke:rgb(227,213,193);stroke-width:1.95px;"/>
                <path d="M238.465,490.5C238.552,469.704 238.296,469.566 238.915,468.814C239.409,468.213 241.292,468.215 241.504,468.215C244.674,468.217 244.308,469.187 246.242,471.708C249.388,475.807 254.48,483.492 256.189,485.733C257.312,487.205 258.348,489.393 258.524,489.454C259.929,489.939 259.736,487.704 259.72,487.523C259.546,485.511 259.535,485.53 259.55,483.501C259.619,474.068 259.525,470.172 259.665,469.54C260.079,467.675 264.059,467.864 264.497,469.501C264.692,470.232 264.504,497.306 264.473,497.496C264.077,499.934 260.513,499.226 259.543,498.449C258.585,497.683 248.995,483.761 247.319,481.643C245.993,479.966 246.214,479.828 245.34,478.628C243.171,475.653 243.274,479.293 243.279,479.471C243.505,487.49 243.352,487.475 243.386,495.498C243.396,497.791 243.568,499.354 240.513,499.151C238.085,498.991 238.476,497.103 238.465,490.5Z" style="fill:rgb(227,213,193);stroke:rgb(227,213,193);stroke-width:1.95px;"/>
            </g>
        </g>
    </g>
</svg>
