<?xml version="1.0" encoding="UTF-8" standalone="no"?>
<!DOCTYPE svg PUBLIC "-//W3C//DTD SVG 1.1//EN" "http://www.w3.org/Graphics/SVG/1.1/DTD/svg11.dtd">
<svg width="100%" height="100%" viewBox="0 0 500 500" version="1.1" xmlns="http://www.w3.org/2000/svg" xmlns:xlink="http://www.w3.org/1999/xlink" xml:space="preserve" xmlns:serif="http://www.serif.com/" style="fill-rule:evenodd;clip-rule:evenodd;stroke-linejoin:round;stroke-miterlimit:2;">
    <g id="saltandhoneycafe.jpg" transform="matrix(0.736962,0,0,0.736962,12.998514,69.369)">
        <g id="Background" transform="matrix(0.595833,0,0,0.335156,-0.157082,-76.647439)">
            <path d="M1080,960C1080,1489.838 838.034,1920 540,1920C241.966,1920 0,1489.838 0,960C0,430.162 241.966,0 540,0C838.034,0 1080,430.162 1080,960Z" style="fill:rgb(40,21,7);"/>
        </g>
        <g id="Main-Letter" serif:id="Main Letter" transform="matrix(1.107541,0,0,1.107541,-47.252061,-52.469076)">
            <g transform="matrix(1.13985,0,0,1.372524,-91.637428,-211.638593)">
                <path d="M491.561,336.063C487.359,335.34 485.016,334.664 483.463,335.447C482.379,335.993 476.62,346.677 473.701,350.636C470.07,355.559 470.296,355.704 466.721,360.653C462.862,365.995 460.047,370.244 454.121,377.18C443.77,389.294 439.203,392.698 438.419,393.409C428.665,402.248 416.098,409.582 405.533,412.614C395.064,415.619 383.066,416.186 379.473,415.772C373.095,415.036 373.106,415.154 372.555,415.081C367.147,414.366 359.98,411.679 355.803,407.206C346.039,396.749 357.816,385.292 359.025,389.604C359.097,389.862 358.606,391.37 358.558,391.52C358.482,391.752 357.961,393.353 357.976,394.505C358.135,407.248 375.827,408.996 378.51,409.016C393.814,409.132 402.093,404.199 407.565,401.624C411.9,399.584 419.841,394.1 421.632,392.681C428.321,387.379 428.362,387.442 434.305,381.307C443.542,371.771 460.725,347.605 464.892,340.736C466.04,338.844 468.554,335.619 467.323,334.803C466.497,334.255 446.04,335.498 432.776,344.879C431.321,345.908 426.928,349.798 425.519,352.512C424.683,354.122 423.986,354.488 423,352.963C422.929,352.853 421.162,350.45 421.409,347.493C422.346,336.306 441.341,329.811 451.529,328.759C470.655,326.783 471.572,329.374 473.472,327.475C474.218,326.729 481.272,313.927 481.928,312.736C502.813,274.833 504.225,270.801 505.69,266.567C508.118,259.553 506.255,256.003 493.545,257.875C484.302,259.236 464.686,266.855 450.559,278.572C449.732,279.258 444.118,283.913 440.69,287.677C428.587,300.961 434.905,307.644 438.456,309.572C440.911,310.904 439.712,312.756 436.504,312.461C431.822,312.031 428.52,309.56 428.477,309.535C420.68,304.835 417.751,293.128 429.772,281.797C432.124,279.58 439.176,274.379 439.809,273.967C443.895,271.303 443.933,271.392 444.287,271.161C449.908,267.481 453.297,266.002 464.599,260.708C474.883,255.891 488.679,252.296 496.525,251.795C505.378,251.231 509.545,252.82 510.602,253.224C511.619,253.612 518.956,256.41 518.263,264.471C518.134,265.975 517.73,270.674 512.095,282.312C511.534,283.472 506.925,292.992 504.725,296.629C503.765,298.217 500.507,304.448 499.803,305.665C498.699,307.575 497.181,310.346 496.956,310.755C496.407,311.757 491.338,321.009 490.129,323.302C487.496,328.295 486.79,328.414 487.6,329.394C487.875,329.726 489.409,330.005 489.572,330.035C503.868,332.637 507.643,334.524 509.439,334.258C510.783,334.059 511.165,331.803 516.921,321.748C521.862,313.117 521.99,313.2 522.401,312.44C525.181,307.304 525.654,307.61 528.579,302.55C529.677,300.65 535.912,292.165 537.6,289.565C543.17,280.989 554.661,267.237 557.407,264.411C565.964,255.608 569.02,254.269 571.31,253.1C575.742,250.835 581.163,251.523 583.411,254.567C583.539,254.74 584.801,256.449 583.366,257.25C583.156,257.367 583.149,257.331 581.526,257.639C580.942,257.75 578.661,258.183 574.891,261C570.748,264.094 561.065,276.48 557.111,282.212C553.917,286.842 553.449,286.489 542.273,303.367C539.052,308.231 539.32,308.373 536.159,313.277C533.573,317.29 533.751,317.389 533.197,318.33C524.612,332.927 524.806,333.03 524.181,334.363C524.112,334.508 521.437,340.167 520.751,341.712C520.282,342.768 513.931,356.066 512.98,358.654C507.207,374.362 507.454,376.036 507.172,377.447C503.222,397.241 508.015,403.336 512.503,402.869C513.18,402.799 513.825,402.5 514.505,402.469C514.711,402.46 517.209,403.148 513.921,404.981C507.872,408.355 502.082,406.08 501.378,405.84C490.807,402.234 491.6,389.592 491.617,387.503C491.756,370.317 506.806,341.986 507.172,340.432C507.334,339.747 506.502,338.954 506.321,338.886C505.019,338.393 494.361,336.447 491.561,336.063Z" style="fill:white;"/>
            </g>
            <g transform="matrix(0.870961,0,0,0.870961,0.291027,-35.404983)">
                <path d="M360.864,311.503C361.03,309.354 361.012,309.371 361.123,308.446C361.257,307.327 362.061,300.623 366.285,295.334C373.073,286.833 379.669,286.863 382.503,286.817C394.143,286.628 397.157,298.883 388.723,308.695C382.613,315.804 378.279,317.972 375.716,319.827C373.338,321.548 373.974,322.136 375.096,326.598C377.1,334.573 382.876,346.111 387.829,353.269C387.97,353.473 389.422,355.571 390.311,355.111C391.254,354.623 395.226,349.508 396.581,347.558C400.34,342.149 400.966,341.17 397.806,337.273C394.139,332.749 390.752,331.281 390.66,331.225C388.048,329.67 390.331,328.634 390.527,328.546C390.947,328.355 393.828,326.678 398.673,331.321C401.993,334.501 402.691,338.731 404.633,334.575C405.451,332.824 408.887,326.453 407.469,320.507C406.017,314.42 402.82,314.836 402.54,313.487C402.311,312.383 403.565,310.31 407.386,312.692C408.606,313.452 413.786,316.261 412.496,324.499C411.4,331.494 408.294,336.39 406.887,338.706C405.271,341.366 404.984,341.431 405.499,344.5C406.17,348.491 405.403,352.054 405.205,352.254C405.031,352.429 403.989,352.413 403.853,352.253C403.666,352.032 403.399,348.11 403.157,347.792C402.983,347.563 401.962,347.421 401.651,347.652C401.415,347.828 401.64,348.071 400.692,349.618C395.255,358.486 391.795,358.719 394.385,361.604C398.711,366.421 402.207,369.866 409.624,372.063C414.192,373.415 420.431,369.863 422.807,367.901C426.601,364.768 426.244,363.601 427.5,363.576C430.804,363.509 426.793,370.99 419.411,375.341C417.641,376.384 406.416,383 393.735,375.104C385.928,370.243 386.227,366.852 383.164,369.033C382.585,369.445 378.866,372.094 375.54,373.589C367.621,377.148 362.677,377.111 361.521,377.103C352.395,377.034 349.516,375.502 347.441,374.629C334.355,369.12 330.879,353.448 341.303,339.361C345.308,333.949 345.604,334.212 348.061,332.012C354.496,326.249 358.24,325.263 360.224,324.001C363.092,322.176 361.023,321.263 360.864,311.503ZM372.233,308.511C372.242,309.066 372.339,314.864 372.66,315.43C373.146,316.285 374.103,316.075 374.235,316.046C374.304,316.031 376.585,314.03 376.787,313.852C388.227,303.813 387.955,294.972 386.638,292.423C384.785,288.838 377.717,290.18 374.472,297.485C371.839,303.415 372.237,307.021 372.233,308.511ZM379.477,361.516C367.037,344.105 364.921,332.668 364.188,330.599C363.442,328.493 362.632,328.517 360.965,329.991C358.043,332.572 358.199,332.704 355.642,335.63C350.277,341.768 348.905,349.718 348.823,350.536C347.248,366.341 363.44,377.341 378.763,365.855C380.902,364.252 381.052,363.691 379.477,361.516Z" style="fill:white;"/>
            </g>
            <g transform="matrix(1.380874,0,0,1.380874,21.967179,-219.578284)">
                <path d="M134.671,318.402C126.685,305.426 120.169,290.373 129.15,274.307C132.933,267.539 137.791,260.325 150.601,252.666C157.168,248.741 165.496,246.225 167.561,245.76C174.475,244.205 174.459,244.16 181.505,243.561C190.253,242.817 203.154,244.878 210.436,250.579C210.459,250.597 212.942,252.275 216.234,256.706C221.303,263.529 219.775,273.163 219.225,275.445C218.135,279.963 216.199,286.059 209.295,292.276C194.426,305.665 177.956,298.602 179.679,295.606C180.726,293.785 181.882,297.448 189.547,295.702C198.636,293.631 210.516,277.329 208.762,264.459C207.738,256.952 204.353,254.641 203.809,254.15C197.863,248.772 190.604,248.552 188.505,248.407C185.866,248.225 172.133,247.279 156.866,257.998C154.393,259.735 148.638,265.443 146.979,267.857C136.882,282.553 140.529,293.338 142.3,298.571C143.837,303.113 149.467,312.333 150.311,313.619C155.505,321.527 155.388,321.588 155.84,322.274C161.346,330.625 160.867,330.884 163.779,336.363C168.718,345.659 169.41,359.852 169.095,363.457C167.808,378.194 164.916,388.268 152.68,401.658C147.45,407.382 140.158,411.841 138.724,412.83C131.429,417.86 118.152,422.417 110.503,423.523C81.382,427.736 64.493,417.291 62.244,415.894C51.078,408.957 43.539,399.991 42.45,384.503C42.33,382.8 42.716,378.277 42.854,377.559C45.095,365.831 50.332,360.167 51.061,359.177C63.577,342.187 84.269,337.523 85.411,337.194C89.622,335.983 102.032,334.336 111.452,336.693C112.564,336.971 119.778,338.775 124.623,342.333C131.96,347.72 134.075,353.319 135.146,359.561C135.636,362.409 134.612,368.2 133.136,371.326C127.663,382.921 112.99,391.642 100.469,385.554C100.239,385.443 97.656,384.187 98.855,382.795C99.608,381.92 101.732,383.03 103.506,383.088C117.121,383.533 125.748,366.014 123.25,356.555C119.037,340.604 101.606,340.595 97.445,341.134C97.053,341.185 92.559,341.766 92.538,341.77C79.614,344.254 70.322,352.583 67.447,356.454C67.048,356.991 64.156,360.52 63.963,360.812C57.566,370.517 57.288,376.699 57.169,377.455C52.69,405.856 82.296,424.503 114.393,416.133C121.653,414.24 133.218,408.205 141.103,399.153C144.201,395.597 147.95,389.697 149.043,387.289C153.15,378.235 153.653,370.06 153.748,368.514C155.074,346.978 143.224,332.852 134.671,318.402Z" style="fill:white;"/>
            </g>
            <g transform="matrix(2.287576,0,0,1.668603,-234.443887,-276.855873)">
                <path d="M162.365,418.282C157.299,421.524 157.708,417.97 157.86,417.639C158.582,416.056 164.823,411.246 170.459,408.427C197.639,394.832 221.291,391.456 238.456,388.295C241.108,387.807 244.909,387.346 245.472,387.277C251.441,386.552 251.447,386.841 257.438,386.136C258.001,386.069 258.008,386.241 264.521,385.763C268.575,385.466 294.054,385.14 311.557,392.356C315.141,393.834 330.286,399.743 331.743,412.468C332.543,419.458 328.649,426.346 319.528,428.602C316.726,429.295 314.525,429.982 313.999,429.191C313.117,427.866 316.409,426.9 318.175,425.153C321.936,421.431 325.464,413.198 319.276,405.679C317.945,404.061 312.386,395.931 286.45,391.876C285.901,391.79 285.902,391.851 279.553,391.08C277.53,390.834 277.539,390.961 275.504,391.038C274.866,391.062 274.872,390.85 267.515,390.964C265.296,390.998 234.809,391.369 207.448,400.345C199.683,402.892 179.758,408.137 162.365,418.282Z" style="fill:white;"/>
            </g>
        </g>
    </g>
</svg>
